<svg width="640" height="480" viewBox="0 0 640 480" fill="none" xmlns="http://www.w3.org/2000/svg">
    <g clip-path="url(#clip0_802_1034)">
    <path d="M0 0H640V480H0V0Z" fill="#244AA5"/>
    <path d="M253 224.8C253 224.8 254.2 224 254.6 223.9C255.1 223.9 256.6 223.3 256.6 223.3C256.6 223.3 257.6 222.8 258.1 222.8C258.7 222.8 259.7 223.4 260.1 223.9C260.4 224.4 262.1 225.3 262.1 225.3C262.1 225.3 263.3 225.7 263.6 225.3C263.8 224.9 264.3 224.6 264.9 224.6C265.4 224.6 265.5 224.1 265.5 223.7C265.5 223.3 265.7 222.8 266.1 222.3C266.6 221.8 267.4 221.5 267.4 221.5C267.4 221.5 268.6 221 268.7 220.3C268.9 219.6 270 219.1 270.7 219C271.4 219 270.7 218.6 272.5 218.8C274.2 219 274.5 218.4 274.5 217.9C274.6 217.4 274.5 216.9 275.6 216.9C276.7 217.1 277.2 217.1 277.2 216.5C277.2 215.9 278.2 215.5 276.5 215.1C274.7 214.6 274.9 215 274.7 214.1C274.7 213.4 274.7 213.5 273.6 213.4C272.4 213.3 273 212.7 272.9 212.1C272.8 211.5 272.5 211.1 272.3 210.8C272 210.4 271.4 210.4 271.4 209.8C271.4 209.2 271.3 208.8 270.7 208.8C270 208.8 269.7 208.8 269.7 208.3C269.7 207.7 269.9 207.3 270.5 207.3C271.2 207.3 271.5 206.7 271.5 206.1C271.3 205.5 271.3 204.2 271.3 204.2L272.2 203.2C272.2 203.2 274.8 201.1 275 200.7C275.2 200.3 276.1 200 276.5 200.8C276.9 201.6 277.1 201.8 277.5 202.2C277.8 202.6 278.8 202.3 279 201.9C279.2 201.5 279.3 200 279.9 199.2C280.5 198.5 280.9 198.1 281 197.4C281.1 196.7 281.5 196.2 282.2 196.2C282.8 196.2 283.2 195.3 283.2 194.8C283.2 194.3 283.6 193.8 284.4 193.6C285.2 193.5 285.7 193 286 193.8C286.3 194.6 286.6 194.5 287.1 194.8C287.7 195.1 288.5 195.4 288.9 195.1C289.4 194.7 289.6 194.1 290.2 194.4C290.8 194.8 291.2 194.4 291.4 193.7L291.7 191.8C291.7 191.8 291.8 191.3 292.8 191.3C293.8 191.3 293.1 190.7 293.6 190.3C294.2 189.9 294.2 189.5 294.9 189.7C295.6 190 296.7 189.4 296.2 188.7C295.6 188.1 294.4 187.1 295.1 186.3C295.8 185.5 296.1 184.3 295.4 184.1C294.7 184 293.6 184.2 293.5 183.5C293.4 182.7 293.1 182.1 294 182C294.8 181.9 296.2 181.9 296.7 181.5C297.1 181.1 298.5 180.8 298.5 179.7C298.5 178.5 298.9 178.4 299.1 177.7C299.2 177.1 299.2 175.7 298.6 175.1C298 174.4 297.2 173.5 297.1 173.1C296.9 172.7 296.4 172.1 295.5 171.8C294.7 171.6 293.9 171.4 293.9 170.8C293.9 170.1 294.5 170.9 294.5 169.2C294.5 167.5 293.4 167.2 293.4 167.2L291.7 166.2C291.7 166.2 288.7 165.4 287.9 165.4C287.1 165.4 286.1 164.6 287 164C288 163.5 288.2 162.5 287.9 161.8C287.5 161.1 287.3 160.5 286 160.2C284.7 159.9 284.4 159.6 285 158.8C285.5 158.1 285.7 157.5 286.4 158.1C287 158.6 288.2 158.8 289.1 158.4C290.1 158 290.4 157.6 290.9 158.1C291.3 158.5 291.9 158.9 292.6 158.3C293.3 157.6 294.6 157.5 295.2 157.8C295.7 158.2 297.2 158.1 297.6 157.8C298 157.6 299 156.8 299 156.5C299 156.2 299.6 155.3 300.1 155C300.7 154.6 301.4 153.6 302 153.6C302.6 153.6 302.8 152.9 302.8 152.6C302.8 152.1 303.3 151.2 303.4 150.9C303.4 150.6 304.6 150.1 305.4 150.9C306.3 151.4 307.4 151.7 307.4 151.7C307.4 151.7 308.4 151.9 309.1 151.7C309.416 151.505 309.779 151.402 310.15 151.402C310.521 151.402 310.884 151.505 311.2 151.7C312.1 152.3 313.2 152.3 313.2 152.3L313.5 151C313.5 150.6 313.7 149.8 313.2 149.5C312.8 149.2 312.2 148.8 313.1 148.1C314.1 147.5 314.1 147.6 315 147.6L317.2 147.7C317.9 147.7 319 148.4 319 149C319 149.6 319.5 150 320 150.4C320.6 150.7 321.3 151 321 151.6C320.9 152.1 320.9 152.6 321.6 152.4C322.3 152.3 322.5 152.7 322.5 153.3C322.5 153.8 322.7 154.1 323.5 154.3C324.1 154.5 324.5 155 324.5 155.5C324.5 156 324.3 156.4 324.5 156.9L325.5 158.3C325.5 158.3 326.8 159.8 325.1 159C323.5 158.3 323.1 158 322.6 158L321.6 158.5L320.3 158.7C319.7 158.7 319.1 159.9 320.1 160.1C321 160.3 321.3 160.5 321.3 161.3C321.3 162.1 321 161.8 320.5 162.3C320.1 162.9 319.7 162.5 318.9 162.5C318.1 162.5 317.9 163.2 317.9 163.8C317.9 164.4 318.2 164.4 318.5 164.8C318.9 165.4 319.5 165.5 320.1 165C320.6 164.5 321.1 164.1 321.4 165.1C321.8 166.1 322.3 166.1 322.9 166.1C323.6 166.1 323.9 166.1 324.5 165.7C325 165.4 325.7 165.7 325.8 166.6C326 167.4 326.5 167.6 327.1 167.9C327.7 168.2 328.1 168.4 328.1 168.9C328.3 169.5 328.6 169.7 329.2 169.4C329.8 169 330.7 168.8 331.1 169.3L332 170.5V171.6L334.3 172.4L334.5 173.4C334.5 173.7 334.9 174 335.5 173.8H337.1C337.1 173.8 337.9 173.5 337.9 172.8C337.9 172.2 338.2 172 338.9 172C339.4 172 340.7 172.5 341 171.8C341.4 171.2 342.4 171 343.2 171.3L346.2 172.5C346.2 172.5 345.9 172.5 346.6 173.6C347.3 174.7 348.6 174.7 348.6 174.7C348.6 174.7 348.6 175.7 348.9 176.1C349.1 176.5 350.2 176.7 350.7 176.3C351.3 175.9 352.1 175.3 352.8 175.3C353.5 175.3 354 175.3 354 174.9C354 174.5 353.3 174.2 353.3 173.5C353.3 172.8 354 172.9 354.1 172.2C354.2 171.6 354.9 172.2 355.4 172.6C355.9 173 356.4 173.4 356.4 173.8C356.4 174.3 357.4 175.8 357.9 176C358.5 176.2 360 176.3 360.5 175.8C360.9 175.2 362.1 175 362 176.3C361.9 177.6 361.6 177.7 362.4 178.1C363.2 178.5 363.4 180.1 362.7 180.5C362 180.9 361.7 181 361.7 181.7C361.7 182.4 361.5 183.3 362.1 183.7C362.7 184.2 363.1 184.5 363.1 184.9C363.1 185.4 363.7 187.3 363.7 187.3C363.7 187.3 364.1 189.2 363.9 189.6C363.9 190.1 363.6 190.8 364.6 190.7C365.6 190.6 365.9 190.6 365.9 191.4C365.9 192.2 366.3 192.6 365.7 192.9C365.1 193.3 364.7 194.3 365.3 194.5C365.9 194.7 366.3 195.1 366.5 195.5C366.6 195.9 367.5 196.7 368.1 196.2C368.7 195.8 368.8 195.6 369.3 195.5C369.7 195.4 370.1 195.1 369.6 194.5C369.2 194 369 193.5 369.5 193.1C370 192.8 370.2 191.8 370.2 191.8C370.2 191.8 370.9 190.8 371.7 191.8C372.5 192.8 372.7 192.4 373.2 192.4C373.7 192.4 374 192.9 374 193.4C374 194 375.2 193.9 375.2 194.7L375.4 197.7C375.4 197.7 375.4 198.8 376.1 199.2C376.8 199.7 376.7 199.8 376.3 200.2C376 200.8 376.1 201.7 376.1 202.2C376.1 202.7 376.3 202.7 375.8 203.2C375.2 203.6 374.9 204.2 375.3 204.8C375.6 205.4 375.5 205.8 376.4 206.6C377.4 207.3 377.3 207.6 377.3 208.2C377.3 208.7 378.2 209.5 378.2 210C378.2 210.5 378.9 211.2 379.5 211.3C380.1 211.4 380.7 212.3 380.7 212.9L380.8 214.8C380.8 214.8 380.8 215.1 381.4 215.1C382.1 215.1 382.6 215.9 382.8 215.1C383 214.1 383.8 214.1 384.2 213.8C384.6 213.5 385.6 213.2 386.1 213.5C386.6 213.8 387.1 213.8 387.6 213.8L390.2 213.9C390.2 213.9 390.8 213.9 391.2 214.7C391.5 215.5 392.5 216.5 392 216.9C391.4 217.4 391.4 218.2 392 218.2C392.6 218.2 393.5 218.2 393.5 218.7C393.5 219.3 393.5 219.7 394.2 219.4C394.7 219.1 395.1 219 395.3 219.4C395.6 219.8 396 219.8 396.6 220.1C397.2 220.5 397.4 220.2 397.8 219.8C398.1 219.4 399.5 219 399.5 219C399.5 219 401.3 218.5 402 218.7L403.7 219.4C403.7 219.4 404.1 220.4 403.9 221.1C403.7 221.7 403.4 221.6 403.7 222.6C403.9 223.6 403.4 223.6 403 223.6C402.5 223.4 402 223.4 402 224.3C402 225.1 401.6 225.3 401.6 226.1C401.6 226.9 401.6 226.7 401.1 227.1C400.7 227.4 400.5 227.9 401.2 228.1C401.9 228.1 401.7 228.9 401.7 229.3L401.6 230.7C401.6 230.7 401.6 231.2 400.9 231.2C400.2 231.2 399.4 231.2 399.3 231.7C399.1 232.2 398.3 233 399 233.6C399.8 234.1 399.6 234.4 399.1 234.6C398.7 234.9 398.3 235.9 399.3 236.2C400.2 236.6 400.1 236.9 399.5 237.3C398.9 237.7 397.8 238.1 397.8 238.7C397.8 239.3 397.5 239.3 396.8 239.4C396.1 239.5 395.8 240.4 396.6 241.4C397.4 242.5 397.6 242.4 398.2 242.4C398.8 242.4 398.8 241.4 398.8 241.4L401.3 241.6C401.9 241.6 402.7 241.6 403.2 241.3C403.7 240.9 404.9 240.4 404.9 241.3C404.9 242.3 405.2 242.3 405.7 242.6C406.3 243.1 406.4 242.7 406.9 243.4C407.4 244 407.5 243.4 407.9 242.7C408.2 242 408.9 241.3 409.5 242.1C410 243 410 242.7 410.7 242.7C411.4 242.7 411.7 243.1 411.7 243.6C411.7 244.1 412.3 244.1 413.2 244C414 244 414.1 244.5 414.4 245C414.7 245.5 414.9 245.4 415.4 245.4C415.8 245.4 416.3 245.4 416.6 245C417 244.6 417.4 244 417.9 244.7C418.4 245.3 419.3 245.2 419.5 244.5C419.8 243.7 420.8 243.1 421.4 243.9C422 244.8 422.4 244.8 423 244.9C423.6 244.9 424.4 244.9 424.7 245.5C425.1 246.1 426.2 246.9 425.4 247.5C424.6 248.2 423.7 249 424.4 249.3C425.027 249.453 425.588 249.803 426 250.3C426.5 250.7 428 251 428.7 251.1C429.4 251.1 429.9 251.3 430.7 250.6C431.6 250 432.4 250 432.3 250.9C432.2 251.7 432.6 252.7 432.6 252.7C432.6 252.7 433.2 254.1 433.2 254.6C433.2 255.1 433.1 255.2 434.2 255.9C435.2 256.5 435 256.9 435.9 256.3C436.7 255.7 436.9 255.3 436.9 254.8V253.1C436.9 253.1 438.1 252.9 438.5 252.6C439 252.2 440.8 251.3 441.3 251.7C441.8 252.1 442.3 252 442.8 251.8C443.3 251.6 444.2 251.6 444.7 251.6C445.1 251.6 445.9 251.7 446.9 251C447.8 250.2 447.8 250.4 448.4 251C448.9 251.5 448.9 252.1 448.6 252.6C448.2 253 448.6 253.9 449.4 253.9C450.2 253.9 450.4 254.4 450.4 254.9L450.7 256.6C450.7 257 450.7 257.3 452.1 257.6C453.3 257.9 453.1 258.6 453.3 259.2C453.6 259.7 453.6 260.2 452.9 260.2C452.2 260.2 451.9 260.5 451.9 261C451.7 261.5 450.7 261.7 450.7 261.7L449.7 261.5C449.7 261.5 448.9 261.5 448.6 261.9C448.2 262.4 447.6 263.2 448 263.9C448.5 264.7 448.5 265.1 448 265.5C447.6 265.8 447.3 267.4 446.9 267.1C446.4 266.7 445.9 267.1 445.4 267.4C444.9 267.6 445 269.1 445.9 269.6C446.9 270.2 447.1 270.9 447.1 270.9L448.1 272.5C448.1 272.5 447.8 272.8 447.6 273.4C447.3 273.9 446.6 275 447.3 275.2C448 275.4 447.7 276.6 447 276.6C446.3 276.6 445.5 276.2 445.4 277.1C445.3 278 444.9 277.7 444.2 277.6C443.5 277.6 441.8 277.1 441.3 277.9C440.8 278.8 440.7 279.1 439.9 279C439.1 279 439.4 280.3 439.7 280.8L440.7 282.1C440.7 282.1 441.4 282.6 441.4 283.7C441.4 284.7 440.9 284.7 440.4 283.9C440 283.2 439.1 283.3 439 284.1C438.9 285 438.7 286.3 438 286.3C437.1 286.3 436.8 286.5 436.4 286.9C436.1 287.3 435.5 288.1 435.5 288.5C435.5 288.9 435.4 289.4 434.8 289.5C434.2 289.6 434.1 290.7 434.1 290.7C434.1 290.7 432.7 291 432.6 291.5C432.5 292 432.7 292.9 431.6 293C431.152 293.053 430.721 293.206 430.34 293.448C429.959 293.691 429.638 294.016 429.4 294.4C429 294.9 428.9 295.4 429.4 295.9C429.9 296.4 430.2 298.1 430.8 298.4C431.3 298.7 431.8 298.9 431.7 299.7C431.6 300.6 430.9 301.2 431.8 301.2C432.8 301.2 433.3 301.4 433 302.2C432.6 302.9 432.6 303 432 303.3C431.2 303.7 430.9 303.7 430.9 304.5C430.9 305.3 431.1 305.4 430.5 305.7C429.9 306 429.9 306.4 429.9 307.1C429.9 307.8 429.7 307.5 429 308.2C428.3 309 427.4 309 426.8 308.8C426.2 308.6 426.1 308.6 426 307.9C425.9 307.3 424.9 307.3 424.3 307.4C423.7 307.4 422.9 308.1 422.9 308.1C422.9 308.1 421.9 308.8 422.3 309.3C422.8 309.8 422.5 310.7 421.7 310.6C420.9 310.5 419.1 311.4 418.5 310.5C417.9 309.5 416.3 308.9 416 310.2C415.8 311.4 416.7 311.3 416.6 312.6C416.6 313.9 416.3 313.9 415.8 314.3C415.4 314.7 415.4 315.1 415.2 315.6C415.2 316.1 415 317.3 415.8 317.7C416.6 318.2 417 319.3 417 320C417 320.6 417 321.3 417.8 321.3C418.6 321.3 419.3 321.1 419.4 320.4C419.5 319.7 421.1 319.2 421.3 320.7C421.3 322.2 421.3 323 422 323.6C422.5 324.2 423 325.1 423.5 325.4C423.9 325.7 424.7 328.4 424.7 328.4C423.6 328.7 423.3 330.2 422.6 330.4C422.2 330.6 421.7 330.4 421.3 330.7C421.1 331 421.1 331.4 420.7 331.5C419.8 331.9 420 330.6 418.9 331.1C418 331.5 417.9 332.6 416.6 332.1C415.9 331.9 415.5 329.1 415.3 328.5L414.2 326.7C413.4 325.5 411.9 326.7 411.4 326.3C410.6 325.8 410.9 324.9 409.7 324.8C407.3 324.6 409 326.3 408 326.6C406 327.3 406 324.8 404.6 326C404.1 326.4 405.6 326.7 405.2 327.4C404.9 328 403.5 329 403.5 329.7C403.7 330.7 404.7 331 405 331.7C406 334 404.5 335.5 402.3 333.7C401.1 332.8 400.8 331 399 331.2C398.5 331.2 398.4 331.6 398 331.7C397.5 331.7 397.2 331.3 396.7 331.4C396 331.7 396.7 332.2 396.5 332.6C396.5 332.6 395.5 333.3 395.5 333.6C394.9 334.2 395.1 334.8 394.3 335.4C393.7 335.9 393.2 335.6 392.5 336.4C391.8 337.1 391.7 338.3 390.8 339C390.3 339.4 390 337.9 389.4 338.9L389.2 339.3C389 339.6 389 339.7 389.2 340C390.4 342.4 387.8 343.2 387 344.9C386.7 345.6 387.6 346.2 387.3 346.8L385.8 348.5C385.8 348.7 385.6 349.3 385.4 349.5C385.2 349.7 384.4 349.5 384.4 349.9C384.4 350.3 385.2 350.6 385.4 350.8C385.6 351.1 385.2 351.5 385.4 351.6C386.6 352.9 385.9 352.5 386.5 353.6C386.6 353.8 387 353.5 387.2 353.9C387.3 354.3 386.8 354.3 387 354.7C387 354.9 388 356.1 388 356.1C388 356.5 386.2 357.3 385.8 357.3C384.7 357.3 386.8 355.1 385 355.1C384.2 355.1 384.1 356.8 384 357.1H383C381.8 357.1 381 358.5 380.6 358.6C380.3 358.7 379.6 358.4 379.1 358.6C378.7 358.6 378.1 359.1 377.7 359.1C377.4 359.1 377.3 358.9 377 358.7C376.5 358.4 375.5 358.3 375 358.1C374.6 358.1 374 358.5 373.8 358.4C373.5 358.2 374.1 357.4 373.2 357L372.5 355.3C372.8 354.3 373.1 353.3 373 352.2C372.8 351.1 371 350.2 370.6 349.2C370.3 348.6 370 346.8 369.3 346.4C368.538 345.816 367.921 345.063 367.5 344.2C367.5 344 367.8 343.6 367.5 343.2C367.2 342.9 366.7 342.7 366.5 342.2C366.4 341.8 366.5 340.4 366 340.1C365.5 339.8 362 339.3 361 339.2C360.6 339.2 360.3 339.2 360 338.9L359.4 338.2L358.4 338.4C358.1 338.4 357.6 338.2 357.4 338.4C356.3 339.1 356 340.1 354.9 341C353.8 341.8 352.6 341.8 351.5 342.7C350.8 343.3 350.3 344.8 349.6 345.5C349.3 345.8 348.9 345.5 348.8 345.6C348.2 346.3 347.4 346.8 346.8 347.4C346.7 347.6 346.8 347.8 346.6 347.9L345.3 348.3H344.1C343.6 348.5 343.6 349.1 341.6 349.5L341.1 349.8L340.5 350.3H339.6C339.1 350.3 338.8 350.8 338.4 350.8C337.4 351 335.6 350.3 334.8 350.7C334.3 350.8 333 352.4 332.5 352.5C332.2 352.6 331.9 352.5 331.5 352.4L330.9 354.6L328.5 356.7C328.2 357 328.1 357.4 327.7 357.7C327.5 358 327.1 358.2 326.7 358.2C326.3 358.2 325.6 357.8 325.1 357.8C324.3 357.6 321.8 357.5 321.1 357.7C320.2 357.8 320.5 360.1 318.5 360.3L315.2 360.7C315.1 360.7 314.4 360.3 313.7 360.4C313.4 360.5 312.6 361.4 312.6 361.6V362.1L312.8 362.5C312.4 363 311.4 363.8 311.1 364.5L310.7 364.9C310.5 365.1 309.1 365.6 309 365.8C308.7 366.6 310 367.4 309.8 367.7C309.5 368.7 308.1 369.7 307.6 370.7C307.5 371.1 308.1 372.4 308.1 372.8C307.9 374.1 307.5 375.7 307.6 376.9L307.8 378.6L308.5 379.1L310.3 382.7C310.6 384.9 307.3 384.1 309.3 386.3C309.5 386.7 309.7 387 310.1 387.3L312.9 389.6C312.9 390 310.9 390.3 310.6 390.6C309.6 391.6 308.9 393.2 308 394.2C307.4 394.7 307 394.1 306.2 395.5C306 396 306.2 397.1 305.9 397.5C305.4 397.9 305.1 397.3 304.6 397.5C304.4 397.5 304.3 398.2 304.1 398.3C303.6 398.8 298.9 401.3 298.5 401C298.3 400.9 298 400.1 298 399.9C298 399.6 297.6 399 297.4 398.9C296.2 397.9 294.4 397.6 293.2 398.9C292.9 399.2 292.9 399.7 292.5 399.9L290.5 401.5L290 402C289.5 402 288.4 400.7 288 400.3C287.6 399.7 286 398.3 285.9 397.6C285.9 395.2 284 392.7 283.3 390.4H284.4C285.7 389.5 285.4 387.4 287.7 388.2C288 387.8 288 387.4 288.5 387.2C288.7 387 289.1 386.9 289.2 386.7C290 385.5 290.9 380.9 290.1 379.7C289.4 378.7 288.6 378.7 288.1 377C287.9 376.5 288.1 376 288.1 375.4L287.1 372.3C286.9 372 286.4 371.8 286.4 371.6L286.2 368.5C285.5 366.3 282.8 365 282.7 364.7L281.7 363C281.3 362.3 281.3 362 281.1 361.4C281 361.1 280.5 360.8 280.5 360.5C280.5 359.9 282.1 358.8 282 357.8C282 357.5 281 356.5 281.2 356C281.4 355.4 282.4 354.2 282.4 353.5C282.4 352.7 280.8 350.9 280.6 350.1C280.5 349.6 281.2 349.3 281 349C280.8 348.6 279.2 347.1 279 346.7C278.7 346.4 279.5 346 279 345.4C278.4 344.9 278.9 345 278.7 344.6C278.5 344.1 278 343.6 277.7 343.1C277.5 342.6 276.1 337.6 276.2 337.3C275.9 337 275.5 336.7 275.3 336.3L274.9 335.1C274.9 335.1 273.3 334.6 273 334.1C272.8 333.8 272.7 332.5 272.3 331.9C272.1 331.6 271.8 331.7 271.6 331.5C271.4 331.3 271.4 331 271.3 330.8C270.8 330.2 269.9 330.8 269.3 328.4C268.3 327.8 267.6 327.4 266.9 326.6L266.5 326.2C265.9 326 265 325.9 264.5 325.5C264.2 325.5 262.7 325.5 262.5 325.3L262.1 324.5C261.3 324.4 259.9 324.5 259.2 323.9C258.7 323.4 258.6 321.1 257.6 321.4C257.469 321.361 257.33 321.361 257.2 321.4C256.5 320.4 254.3 320.4 253.4 319.8C253.2 319.7 252.4 319.8 252.4 319.6L252.5 318.3L251.4 316.9C250.5 316.7 250.8 316.6 250.4 316.3C248.9 316.3 248.7 316.5 247.8 317.3C247.6 317.5 247.1 317.6 246.8 317.7C246.3 318 246.2 318.9 245.5 318.5L244.9 318C244.5 317.6 244.3 317.8 244.1 317.2C242.9 316.5 239.6 318.7 238.9 317.2C238.3 316.9 237.9 317.2 237.4 316.8C237.2 316.6 238.1 313.8 235.7 312.8L237.3 311.7C237.5 311.4 237.3 310.9 237.3 310.7C237.3 310.2 237.6 309.3 237.5 309C237.5 308.7 237.1 308.4 237 308C236.8 307.7 237 307.2 236.8 306.8L236 306.4C235.4 305.9 234.8 305.6 234.3 305L233.9 304.5C233.5 304.2 232.1 303.7 232.1 303.1C232.1 302.9 232.5 302.8 232.5 302.6C232.6 302.3 232.5 302 232.8 301.8C233.4 300.8 234.9 301.3 234.7 299.6C234.6 298.8 234 298.2 233.9 297.4C233.6 297.2 233.6 296.9 233.4 296.7C231.9 296.6 232.1 295.1 231.6 294.7C230.1 293.7 228.9 294.3 230.6 292.3C230.8 291.6 229.1 290.5 228.8 290.2C228.2 289.6 228.5 288.3 228.2 287.7C228.2 287.4 227.1 286.8 226.8 286.4L226.3 285.4V285.3C226.6 285 226.5 284.5 226.3 284.3C226.2 284 225.7 284.1 225.6 283.9C224.2 282.7 222.6 282.1 220.7 281.4C220.2 281.2 220.4 280.8 219.9 280.6L216.9 279.4C216.7 279.4 216.5 278.3 216.3 277.9L215.4 276.9C215.4 275.9 214.8 275.9 214 275.3V274.7L214.6 272.6C214.7 272.2 215.2 271.8 215.1 271.4L214.7 269.1C213.9 267.1 213 267.3 213.5 264.6C213.5 264 213.4 263.7 213.8 263.2L214 262.9L215.2 262C215.6 261.4 215.9 260.1 216.4 259.7L218.2 258.5C218.4 258.3 218.6 257.6 218.5 257.3C218.1 257.1 217.7 257.2 217.3 257.1C217.1 257.1 216.6 256.7 216.2 256.7C216.1 256.5 215.9 256.4 215.9 256.2L215.7 256C215.2 256 214.7 255.7 214.3 255.5C213.8 255.3 213.1 255.3 212.6 255C211.6 254.5 210.6 253 209.7 252.8C208.5 252.5 207.7 252.9 206.5 253C205.8 253 205.8 252.6 205.2 252.4C204.4 252.1 205 252.8 203.2 252.2C202.9 252 203.2 251.4 203.2 251.2H202.2C200.8 250.8 201.3 249.4 200.9 248.5C200.8 248.3 200.1 248.3 199.9 248.3C199.7 248.3 199.7 248.1 199.7 248.1L199.9 248C200.1 247.6 199.2 246.6 199.2 246.4C199.3 246.1 201.2 245.8 201.4 245.8C201.5 245.5 201.3 245.3 201.2 245.1C201.2 244.6 201.5 243.9 201.7 243.4V243.2C201.1 242.9 201 242.5 200.5 242.2C200.5 241.9 200.8 241.8 200.9 241.5C201.8 239 203.2 241 204.4 238.7C204.5 238.5 204.9 238 205 237.6H205.2C205.4 237.6 205.8 237.8 206 237.6C206.2 237.4 206.5 237.4 206.8 237.3H207.3C209.5 236.9 209 236.1 210.3 235.2C210.7 234.9 211.7 234.8 212.1 234.6C212.6 234.9 213.3 235.6 214.2 236C214.9 236.2 217.2 236.7 217.6 237C218.1 237.2 218.2 237.8 218.6 238C219.9 238.8 219.1 237.6 220.4 237.8C221.7 238.1 222.7 239.2 223.9 239.7L224.9 239.6C225.2 239.5 227.2 239.1 227.4 239.2L228.2 239.5C228.5 239.6 228.7 239 229 239C229.8 239.2 229.8 239.5 231 239.4C231 239.4 231.6 236.1 232.2 236C232.5 235.9 233.4 236.7 233.6 236.8C234 236.9 233.6 236.1 233.6 236.1C233.4 235.8 232.8 233.8 232.9 233.6C232.9 233.6 233.4 233.8 233.7 233.7C234.3 233.5 235.2 233.3 235.7 232.8L236.7 231.3C236.8 231.1 236.5 230.5 236.7 230.3L237.6 229.7C238 229.3 238 228.7 238.6 228.4C240.6 228.2 241.3 226.6 243.2 226.4H243.8L244.2 227C244.2 227.1 245.5 227.9 245.7 227.8C245.9 227.8 246 227.5 246.2 227.4C246.5 227.5 247.6 226.9 247.7 226.5C247.7 226.5 247.5 226.2 247.6 225.9C248.099 225.456 248.634 225.055 249.2 224.7H250.6C250.8 224.9 250.8 225.3 251.1 225.3H252.3C252.5 225.3 252.6 224.8 253 224.8Z" fill="#D0A650"/>
    <path d="M351.9 73.4L368 123L325.8 92.3H378L335.8 123L351.8 73.4H351.9ZM414.7 84.5L430.7 134.1L388.6 103.4H440.7L398.5 134.1L414.7 84.5ZM474.6 106.3L490.6 155.9L448.5 125.2H500.6L458.4 156L474.6 106.4V106.3ZM288.1 73.4L272 123L314.2 92.3H262L304.2 123L288.2 73.4H288.1ZM225.3 84.5L209.3 134.1L251.4 103.4H199.3L241.5 134.1L225.3 84.5ZM165.7 106.3L181.9 155.9L139.7 125.2H191.8L149.6 155.9L165.7 106.3Z" fill="white"/>
    </g>
    <defs>
    <clipPath id="clip0_802_1034">
    <rect width="640" height="480" fill="white"/>
    </clipPath>
    </defs>
    </svg>
    