<svg viewBox="0 0 880 620" xmlns="http://www.w3.org/2000/svg" role="img" aria-label="Architecture of countries-atlas v2">
    <defs>
      <marker id="arrow" markerWidth="8" markerHeight="6" refX="7" refY="3" orient="auto">
        <polygon points="0 0, 8 3, 0 6" fill="#4f5d75"/>
      </marker>
      <marker id="arrow-accent" markerWidth="8" markerHeight="6" refX="7" refY="3" orient="auto">
        <polygon points="0 0, 8 3, 0 6" fill="#eb6c36"/>
      </marker>
    </defs>

    <rect width="100%" height="100%" fill="#f5f5f5"/>

    <!-- ── zones ── -->
    <rect x="64" y="48" width="752" height="104" rx="8" fill="rgba(45,49,66,0.02)" stroke="rgba(45,49,66,0.10)" stroke-width="0.8"/>
    <rect x="96" y="52" width="152" height="12" rx="2" fill="#f5f5f5"/>
    <text x="172" y="61" fill="rgba(45,49,66,0.40)" font-size="7" font-family="'Geist Mono','SFMono-Regular',Menlo,Consolas,monospace" text-anchor="middle" letter-spacing="0.14em">BUILD TIME · NOT PUBLISHED</text>

    <rect x="64" y="216" width="776" height="128" rx="8" fill="rgba(45,49,66,0.02)" stroke="rgba(45,49,66,0.10)" stroke-width="0.8"/>
    <rect x="96" y="220" width="120" height="12" rx="2" fill="#f5f5f5"/>
    <text x="156" y="229" fill="rgba(45,49,66,0.40)" font-size="7" font-family="'Geist Mono','SFMono-Regular',Menlo,Consolas,monospace" text-anchor="middle" letter-spacing="0.14em">PUBLISHED PACKAGE</text>

    <!-- ── arrows (before boxes) ── -->
    <line x1="272" y1="108" x2="344" y2="108" stroke="#4f5d75" stroke-width="1.2" marker-end="url(#arrow)"/>
    <rect x="290" y="88" width="36" height="12" rx="2" fill="#f5f5f5"/>
    <text x="308" y="97" fill="#7a8399" font-size="8" font-family="'Geist Mono','SFMono-Regular',Menlo,Consolas,monospace" text-anchor="middle" letter-spacing="0.06em">PACK</text>

    <path d="M 398,136 V 192 Q 398,200 390,200 H 200 Q 192,200 192,208 V 248" fill="none" stroke="#4f5d75" stroke-width="1.2" marker-end="url(#arrow)"/>
    <line x1="452" y1="136" x2="452" y2="248" stroke="#4f5d75" stroke-width="1.2" marker-end="url(#arrow)"/>
    <path d="M 506,136 V 192 Q 506,200 514,200 H 704 Q 712,200 712,208 V 248" fill="none" stroke="#4f5d75" stroke-width="1.2" marker-end="url(#arrow)"/>

    <path d="M 192,320 V 384 Q 192,392 200,392 H 384 Q 392,392 392,400 V 452" fill="none" stroke="#eb6c36" stroke-width="1.2" marker-end="url(#arrow-accent)"/>
    <rect x="264" y="372" width="40" height="12" rx="2" fill="#f5f5f5"/>
    <text x="284" y="381" fill="#eb6c36" font-size="8" font-family="'Geist Mono','SFMono-Regular',Menlo,Consolas,monospace" text-anchor="middle" letter-spacing="0.06em">SYNC</text>

    <line x1="452" y1="320" x2="452" y2="452" stroke="#4f5d75" stroke-width="1" stroke-dasharray="4,3" marker-end="url(#arrow)"/>
    <rect x="464" y="374" width="48" height="12" rx="2" fill="#f5f5f5"/>
    <text x="488" y="383" fill="#7a8399" font-size="8" font-family="'Geist Mono','SFMono-Regular',Menlo,Consolas,monospace" text-anchor="middle" letter-spacing="0.06em">AWAIT</text>

    <path d="M 712,320 V 384 Q 712,392 704,392 H 520 Q 512,392 512,400 V 452" fill="none" stroke="#4f5d75" stroke-width="1" stroke-dasharray="4,3" marker-end="url(#arrow)"/>
    <rect x="588" y="372" width="48" height="12" rx="2" fill="#f5f5f5"/>
    <text x="612" y="381" fill="#7a8399" font-size="8" font-family="'Geist Mono','SFMono-Regular',Menlo,Consolas,monospace" text-anchor="middle" letter-spacing="0.06em">AWAIT</text>

    <!-- ── build-time nodes ── -->
    <rect x="80" y="80" width="192" height="56" rx="6" fill="#f5f5f5"/>
    <rect x="80" y="80" width="192" height="56" rx="6" fill="rgba(45,49,66,0.03)" stroke="rgba(45,49,66,0.30)" stroke-width="1"/>
    <text x="176" y="106" fill="#2d3142" font-size="12" font-weight="600" font-family="'Geist','Helvetica Neue',Arial,sans-serif" text-anchor="middle">data/</text>
    <text x="176" y="122" fill="#4f5d75" font-size="9" font-family="'Geist Mono','SFMono-Regular',Menlo,Consolas,monospace" text-anchor="middle">250 json · 11.5 MB</text>

    <rect x="344" y="80" width="216" height="56" rx="6" fill="#f5f5f5"/>
    <rect x="344" y="80" width="216" height="56" rx="6" fill="#ffffff" stroke="#2d3142" stroke-width="1"/>
    <text x="452" y="106" fill="#2d3142" font-size="12" font-weight="600" font-family="'Geist','Helvetica Neue',Arial,sans-serif" text-anchor="middle">build-data.mjs</text>
    <text x="452" y="122" fill="#4f5d75" font-size="9" font-family="'Geist Mono','SFMono-Regular',Menlo,Consolas,monospace" text-anchor="middle">columnar + polyline</text>

    <!-- ── published nodes ── -->
    <rect x="96" y="248" width="192" height="72" rx="6" fill="#f5f5f5"/>
    <rect x="96" y="248" width="192" height="72" rx="6" fill="rgba(235,108,54,0.08)" stroke="#eb6c36" stroke-width="1"/>
    <rect x="104" y="256" width="44" height="12" rx="2" fill="transparent" stroke="rgba(235,108,54,0.40)" stroke-width="0.8"/>
    <text x="126" y="265" fill="rgba(235,108,54,0.85)" font-size="7" font-family="'Geist Mono','SFMono-Regular',Menlo,Consolas,monospace" text-anchor="middle" letter-spacing="0.08em">ALWAYS</text>
    <text x="192" y="290" fill="#2d3142" font-size="12" font-weight="600" font-family="'Geist','Helvetica Neue',Arial,sans-serif" text-anchor="middle">core.js</text>
    <text x="192" y="308" fill="#4f5d75" font-size="9" font-family="'Geist Mono','SFMono-Regular',Menlo,Consolas,monospace" text-anchor="middle">56 KB · 250 countries</text>

    <rect x="356" y="248" width="192" height="72" rx="6" fill="#f5f5f5"/>
    <rect x="356" y="248" width="192" height="72" rx="6" fill="rgba(45,49,66,0.02)" stroke="rgba(45,49,66,0.20)" stroke-width="1" stroke-dasharray="4,3"/>
    <text x="452" y="290" fill="#2d3142" font-size="12" font-weight="600" font-family="'Geist','Helvetica Neue',Arial,sans-serif" text-anchor="middle">states/&lt;iso2&gt;.js</text>
    <text x="452" y="308" fill="#4f5d75" font-size="9" font-family="'Geist Mono','SFMono-Regular',Menlo,Consolas,monospace" text-anchor="middle">250 × ~800 B</text>

    <rect x="616" y="248" width="192" height="72" rx="6" fill="#f5f5f5"/>
    <rect x="616" y="248" width="192" height="72" rx="6" fill="rgba(45,49,66,0.02)" stroke="rgba(45,49,66,0.20)" stroke-width="1" stroke-dasharray="4,3"/>
    <text x="712" y="290" fill="#2d3142" font-size="12" font-weight="600" font-family="'Geist','Helvetica Neue',Arial,sans-serif" text-anchor="middle">cities/&lt;iso2&gt;.js</text>
    <text x="712" y="308" fill="#4f5d75" font-size="9" font-family="'Geist Mono','SFMono-Regular',Menlo,Consolas,monospace" text-anchor="middle">192 × 160 B–396 KB</text>

    <!-- ── consumer ── -->
    <rect x="332" y="452" width="240" height="72" rx="6" fill="#f5f5f5"/>
    <rect x="332" y="452" width="240" height="72" rx="6" fill="rgba(235,108,54,0.08)" stroke="#eb6c36" stroke-width="1"/>
    <text x="452" y="494" fill="#2d3142" font-size="12" font-weight="600" font-family="'Geist','Helvetica Neue',Arial,sans-serif" text-anchor="middle">Your app</text>
    <text x="452" y="512" fill="#4f5d75" font-size="9" font-family="'Geist Mono','SFMono-Regular',Menlo,Consolas,monospace" text-anchor="middle">46 KB entry bundle</text>

    <!-- ── legend ── -->
    <line x1="64" y1="556" x2="816" y2="556" stroke="rgba(45,49,66,0.10)" stroke-width="0.8"/>
    <text x="64" y="576" fill="#4f5d75" font-size="8" font-family="'Geist Mono','SFMono-Regular',Menlo,Consolas,monospace" letter-spacing="0.14em">LEGEND</text>

    <rect x="152" y="568" width="16" height="10" rx="2" fill="rgba(235,108,54,0.08)" stroke="#eb6c36" stroke-width="1"/>
    <text x="176" y="576" fill="#4f5d75" font-size="8" font-family="'Geist Mono','SFMono-Regular',Menlo,Consolas,monospace" letter-spacing="0.06em">LOADS WITH YOUR APP</text>

    <rect x="384" y="568" width="16" height="10" rx="2" fill="rgba(45,49,66,0.02)" stroke="rgba(45,49,66,0.20)" stroke-width="1" stroke-dasharray="4,3"/>
    <text x="408" y="576" fill="#4f5d75" font-size="8" font-family="'Geist Mono','SFMono-Regular',Menlo,Consolas,monospace" letter-spacing="0.06em">FETCHED PER COUNTRY</text>

    <rect x="624" y="568" width="16" height="10" rx="2" fill="rgba(45,49,66,0.03)" stroke="rgba(45,49,66,0.30)" stroke-width="1"/>
    <text x="648" y="576" fill="#4f5d75" font-size="8" font-family="'Geist Mono','SFMono-Regular',Menlo,Consolas,monospace" letter-spacing="0.06em">NOT PUBLISHED</text>
  </svg>